<svg width="253" height="97" viewBox="0 0 253 97" fill="none" xmlns="http://www.w3.org/2000/svg">
<mask id="path-1-outside-1" maskUnits="userSpaceOnUse" x="-0.415222" y="15.526" width="81" height="81" fill="black">
<rect fill="white" x="-0.415222" y="15.526" width="81" height="81"/>
<path d="M63.1176 79.0588C50.6425 91.534 30.4163 91.534 17.9411 79.0588C5.46599 66.5837 5.46599 46.3575 17.9411 33.8824C30.4163 21.4072 50.6425 21.4072 63.1176 33.8824C75.5927 46.3575 75.5927 66.5837 63.1176 79.0588Z"/>
</mask>
<path d="M57.4607 73.402C48.1098 82.7529 32.9489 82.7529 23.598 73.402L12.2843 84.7157C27.8836 100.315 53.1751 100.315 68.7745 84.7157L57.4607 73.402ZM23.598 73.402C14.247 64.051 14.247 48.8902 23.598 39.5392L12.2843 28.2255C-3.31505 43.8248 -3.31506 69.1163 12.2843 84.7157L23.598 73.402ZM23.598 39.5392C32.9489 30.1883 48.1098 30.1883 57.4607 39.5392L68.7745 28.2255C53.1751 12.6262 27.8836 12.6262 12.2843 28.2255L23.598 39.5392ZM57.4607 39.5392C66.8117 48.8902 66.8117 64.051 57.4607 73.402L68.7745 84.7157C84.3738 69.1163 84.3738 43.8248 68.7745 28.2255L57.4607 39.5392Z" fill="black" mask="url(#path-1-outside-1)"/>
<path d="M23.5882 39.5295C23.5882 39.5295 23.5882 39.5294 23.5882 39.5295C14.2319 48.8858 14.2319 64.0554 23.5882 73.4118C32.9446 82.7682 48.1142 82.7682 57.4706 73.4118L23.5882 39.5295Z" fill="black"/>
<rect x="6.64706" width="127.778" height="7.98615" transform="rotate(45 6.64706 0)" fill="black"/>
<path d="M121.615 56.89H106.63L103.57 64H96.505L111.22 31.96H116.89L131.605 64H124.675L121.615 56.89ZM119.32 51.535L114.145 39.52L108.97 51.535H119.32ZM166.156 31.96V64H159.946V46.495L152.566 64H148.021L140.596 46.72V64H134.431V31.96H140.011L150.361 55.585L160.621 31.96H166.156ZM172.617 31.96H187.152C190.692 31.96 193.437 32.815 195.387 34.525C197.367 36.235 198.357 38.56 198.357 41.5C198.357 44.41 197.367 46.735 195.387 48.475C193.407 50.185 190.662 51.04 187.152 51.04H179.637V64H172.617V31.96ZM186.252 45.685C189.912 45.685 191.742 44.305 191.742 41.545C191.742 38.755 189.912 37.36 186.252 37.36H179.637V45.685H186.252ZM202.983 31.96H210.003V58.285H224.313V64H202.983V31.96ZM228.603 31.96H250.698V37.405H235.443V44.965H249.753V50.455H235.443V58.555H250.698V64H228.603V31.96Z" fill="black"/>
</svg>
