<svg id="Layer_1" data-name="Layer 1" xmlns="http://www.w3.org/2000/svg" viewBox="0 0 125.01 125.01"><defs><style>.cls-1{fill:#3db8ea;}.cls-2{fill:#fff;}</style></defs><title>trevert-icon</title><rect class="cls-1" x="12.5" y="12.5" width="100" height="100" rx="34.38" ry="34.38"/><polygon class="cls-2" points="35.3 41.56 44.37 36.33 53.44 31.09 53.44 41.56 53.44 52.03 44.37 46.8 35.3 41.56"/><polygon class="cls-2" points="53.44 41.56 62.5 36.33 71.57 31.09 71.57 41.56 71.57 52.03 62.5 46.8 53.44 41.56"/><polygon class="cls-2" points="53.44 62.5 62.5 57.27 71.57 52.03 71.57 62.5 71.57 72.97 62.5 67.74 53.44 62.5"/><polygon class="cls-2" points="53.44 83.44 62.5 78.21 71.57 72.97 71.57 83.44 71.57 93.91 62.5 88.68 53.44 83.44"/><polygon class="cls-2" points="71.57 41.56 80.64 36.33 89.7 31.09 89.7 41.56 89.7 52.03 80.64 46.8 71.57 41.56"/></svg>